<mxfile host="65bd71144e">
    <diagram id="3ytsrdwMypChtOZNVT_Q" name="Page-1">
        <mxGraphModel dx="966" dy="1762" grid="1" gridSize="10" guides="1" tooltips="1" connect="1" arrows="1" fold="1" page="1" pageScale="1" pageWidth="850" pageHeight="1100" math="0" shadow="0">
            <root>
                <mxCell id="0"/>
                <mxCell id="1" parent="0"/>
                <mxCell id="2" value="Caisse enregistreuse" style="text;html=1;align=center;verticalAlign=middle;resizable=0;points=[];autosize=1;strokeColor=none;fillColor=none;" vertex="1" parent="1">
                    <mxGeometry x="355" y="-50" width="140" height="30" as="geometry"/>
                </mxCell>
                <mxCell id="9" value="Actor" style="shape=umlActor;verticalLabelPosition=bottom;verticalAlign=top;html=1;outlineConnect=0;" vertex="1" parent="1">
                    <mxGeometry x="810" y="90" width="30" height="60" as="geometry"/>
                </mxCell>
                <mxCell id="10" value="Caissier" style="text;html=1;align=center;verticalAlign=middle;resizable=0;points=[];autosize=1;strokeColor=none;fillColor=none;" vertex="1" parent="1">
                    <mxGeometry x="790" y="60" width="70" height="30" as="geometry"/>
                </mxCell>
                <mxCell id="14" value="" style="endArrow=none;html=1;exitX=1;exitY=0.5;exitDx=0;exitDy=0;entryX=0.5;entryY=0.5;entryDx=0;entryDy=0;entryPerimeter=0;" edge="1" parent="1" source="12" target="9">
                    <mxGeometry width="50" height="50" relative="1" as="geometry">
                        <mxPoint x="660" y="380" as="sourcePoint"/>
                        <mxPoint x="810" y="125" as="targetPoint"/>
                    </mxGeometry>
                </mxCell>
                <mxCell id="15" value="Actor" style="shape=umlActor;verticalLabelPosition=bottom;verticalAlign=top;html=1;outlineConnect=0;" vertex="1" parent="1">
                    <mxGeometry x="810" y="440" width="30" height="60" as="geometry"/>
                </mxCell>
                <mxCell id="17" value="Responsable" style="text;html=1;align=center;verticalAlign=middle;resizable=0;points=[];autosize=1;strokeColor=none;fillColor=none;" vertex="1" parent="1">
                    <mxGeometry x="780" y="400" width="90" height="30" as="geometry"/>
                </mxCell>
                <mxCell id="47" style="edgeStyle=none;html=1;exitX=1;exitY=0.5;exitDx=0;exitDy=0;" edge="1" parent="1" source="21" target="32">
                    <mxGeometry relative="1" as="geometry"/>
                </mxCell>
                <mxCell id="21" value="Payer" style="ellipse;whiteSpace=wrap;html=1;" vertex="1" parent="1">
                    <mxGeometry x="320" y="210" width="120" height="80" as="geometry"/>
                </mxCell>
                <mxCell id="32" value="Encaisser somme" style="ellipse;whiteSpace=wrap;html=1;" vertex="1" parent="1">
                    <mxGeometry x="490" y="280" width="120" height="80" as="geometry"/>
                </mxCell>
                <mxCell id="52" value="" style="endArrow=none;dashed=1;html=1;dashPattern=1 3;strokeWidth=2;exitX=0.5;exitY=0;exitDx=0;exitDy=0;entryX=0.5;entryY=1;entryDx=0;entryDy=0;" edge="1" parent="1" source="21" target="29">
                    <mxGeometry width="50" height="50" relative="1" as="geometry">
                        <mxPoint x="500" y="110" as="sourcePoint"/>
                        <mxPoint x="550" y="60" as="targetPoint"/>
                    </mxGeometry>
                </mxCell>
                <mxCell id="54" value="Initialiser caisse" style="ellipse;whiteSpace=wrap;html=1;" vertex="1" parent="1">
                    <mxGeometry x="610" y="440" width="120" height="80" as="geometry"/>
                </mxCell>
                <mxCell id="56" value="" style="endArrow=none;html=1;exitX=1;exitY=0.5;exitDx=0;exitDy=0;" edge="1" parent="1" source="54" target="15">
                    <mxGeometry width="50" height="50" relative="1" as="geometry">
                        <mxPoint x="560" y="580" as="sourcePoint"/>
                        <mxPoint x="600" y="540" as="targetPoint"/>
                    </mxGeometry>
                </mxCell>
                <mxCell id="63" value="A" style="swimlane;startSize=0;" vertex="1" parent="1">
                    <mxGeometry x="55" width="740" height="540" as="geometry"/>
                </mxCell>
                <mxCell id="65" value="Utiliser bon de réduction" style="ellipse;whiteSpace=wrap;html=1;" vertex="1" parent="63">
                    <mxGeometry x="315" y="380" width="120" height="80" as="geometry"/>
                </mxCell>
                <mxCell id="25" value="Passer carte de fidélité du client" style="ellipse;whiteSpace=wrap;html=1;" vertex="1" parent="63">
                    <mxGeometry x="95" y="340" width="120" height="80" as="geometry"/>
                </mxCell>
                <mxCell id="28" value="&amp;lt;extend&amp;gt;" style="text;html=1;align=center;verticalAlign=middle;resizable=0;points=[];autosize=1;strokeColor=none;fillColor=none;" vertex="1" parent="63">
                    <mxGeometry x="165" y="300" width="70" height="30" as="geometry"/>
                </mxCell>
                <mxCell id="67" value="&amp;lt;extend&amp;gt;" style="text;html=1;align=center;verticalAlign=middle;resizable=0;points=[];autosize=1;strokeColor=none;fillColor=none;" vertex="1" parent="63">
                    <mxGeometry x="285" y="330" width="70" height="30" as="geometry"/>
                </mxCell>
                <mxCell id="12" value="Enregistrer numéro d'identification des articles" style="ellipse;whiteSpace=wrap;html=1;" vertex="1" parent="63">
                    <mxGeometry x="505" y="110" width="120" height="80" as="geometry"/>
                </mxCell>
                <mxCell id="70" value="Afficher total achats" style="ellipse;whiteSpace=wrap;html=1;" vertex="1" parent="63">
                    <mxGeometry x="355" y="110" width="120" height="80" as="geometry"/>
                </mxCell>
                <mxCell id="31" value="&amp;lt;includes&amp;gt;" style="text;html=1;align=center;verticalAlign=middle;resizable=0;points=[];autosize=1;strokeColor=none;fillColor=none;" vertex="1" parent="63">
                    <mxGeometry x="250" y="125" width="80" height="30" as="geometry"/>
                </mxCell>
                <mxCell id="71" value="" style="endArrow=none;dashed=1;html=1;dashPattern=1 3;strokeWidth=2;entryX=0;entryY=0.5;entryDx=0;entryDy=0;exitX=1;exitY=0.5;exitDx=0;exitDy=0;" edge="1" parent="63" source="70" target="12">
                    <mxGeometry width="50" height="50" relative="1" as="geometry">
                        <mxPoint x="595" y="280" as="sourcePoint"/>
                        <mxPoint x="645" y="230" as="targetPoint"/>
                    </mxGeometry>
                </mxCell>
                <mxCell id="74" value="(2)" style="text;html=1;align=center;verticalAlign=middle;resizable=0;points=[];autosize=1;strokeColor=none;fillColor=none;" vertex="1" parent="63">
                    <mxGeometry x="330" y="180" width="40" height="30" as="geometry"/>
                </mxCell>
                <mxCell id="76" value="Vérifier état caisse" style="ellipse;whiteSpace=wrap;html=1;" vertex="1" parent="63">
                    <mxGeometry x="585" y="290" width="120" height="80" as="geometry"/>
                </mxCell>
                <mxCell id="78" value="&amp;lt;includes&amp;gt;" style="text;html=1;align=center;verticalAlign=middle;resizable=0;points=[];autosize=1;strokeColor=none;fillColor=none;" vertex="1" parent="63">
                    <mxGeometry x="620" y="400" width="80" height="30" as="geometry"/>
                </mxCell>
                <mxCell id="45" value="Demander mode de paiement" style="ellipse;whiteSpace=wrap;html=1;" vertex="1" parent="63">
                    <mxGeometry x="500" y="200" width="120" height="80" as="geometry"/>
                </mxCell>
                <mxCell id="82" value="Fin de vente" style="ellipse;whiteSpace=wrap;html=1;" vertex="1" parent="63">
                    <mxGeometry x="10" y="50" width="120" height="80" as="geometry"/>
                </mxCell>
                <mxCell id="84" value="&amp;lt;includes&amp;gt;" style="text;html=1;strokeColor=none;fillColor=none;align=center;verticalAlign=middle;whiteSpace=wrap;rounded=0;" vertex="1" parent="63">
                    <mxGeometry x="135" y="40" width="60" height="30" as="geometry"/>
                </mxCell>
                <mxCell id="29" value="Ticket de caisse" style="ellipse;whiteSpace=wrap;html=1;" vertex="1" parent="63">
                    <mxGeometry x="275" y="10" width="120" height="80" as="geometry"/>
                </mxCell>
                <mxCell id="83" value="" style="endArrow=none;dashed=1;html=1;dashPattern=1 3;strokeWidth=2;entryX=0;entryY=0.5;entryDx=0;entryDy=0;exitX=1;exitY=0.5;exitDx=0;exitDy=0;" edge="1" parent="63" source="82" target="29">
                    <mxGeometry width="50" height="50" relative="1" as="geometry">
                        <mxPoint x="160" y="170" as="sourcePoint"/>
                        <mxPoint x="210" y="120" as="targetPoint"/>
                    </mxGeometry>
                </mxCell>
                <mxCell id="73" value="(1)" style="text;html=1;align=center;verticalAlign=middle;resizable=0;points=[];autosize=1;strokeColor=none;fillColor=none;" vertex="1" parent="63">
                    <mxGeometry x="465" y="150" width="40" height="30" as="geometry"/>
                </mxCell>
                <mxCell id="92" value="Utiliser mode de paiement" style="ellipse;whiteSpace=wrap;html=1;" vertex="1" parent="63">
                    <mxGeometry x="90" y="170" width="120" height="80" as="geometry"/>
                </mxCell>
                <mxCell id="94" value="&amp;lt;&amp;lt;secondary&amp;gt;&amp;gt;" style="text;html=1;align=center;verticalAlign=middle;resizable=0;points=[];autosize=1;strokeColor=none;fillColor=none;" vertex="1" parent="63">
                    <mxGeometry x="30" y="255" width="110" height="30" as="geometry"/>
                </mxCell>
                <mxCell id="89" value="(3)" style="text;html=1;align=center;verticalAlign=middle;resizable=0;points=[];autosize=1;strokeColor=none;fillColor=none;" vertex="1" parent="63">
                    <mxGeometry x="425" y="210" width="40" height="30" as="geometry"/>
                </mxCell>
                <mxCell id="66" value="" style="endArrow=none;dashed=1;html=1;dashPattern=1 3;strokeWidth=2;entryX=0.5;entryY=1;entryDx=0;entryDy=0;exitX=0.5;exitY=0;exitDx=0;exitDy=0;" edge="1" parent="1" source="65" target="21">
                    <mxGeometry width="50" height="50" relative="1" as="geometry">
                        <mxPoint x="320" y="400" as="sourcePoint"/>
                        <mxPoint x="370" y="350" as="targetPoint"/>
                    </mxGeometry>
                </mxCell>
                <mxCell id="72" value="" style="endArrow=none;dashed=1;html=1;dashPattern=1 3;strokeWidth=2;entryX=0;entryY=1;entryDx=0;entryDy=0;exitX=1;exitY=0;exitDx=0;exitDy=0;" edge="1" parent="1" source="21" target="70">
                    <mxGeometry width="50" height="50" relative="1" as="geometry">
                        <mxPoint x="640" y="300" as="sourcePoint"/>
                        <mxPoint x="690" y="250" as="targetPoint"/>
                    </mxGeometry>
                </mxCell>
                <mxCell id="75" value="1, 2, 3 : &amp;lt;includes&amp;gt;" style="text;html=1;align=center;verticalAlign=middle;resizable=0;points=[];autosize=1;strokeColor=none;fillColor=none;" vertex="1" parent="1">
                    <mxGeometry x="25" y="560" width="120" height="30" as="geometry"/>
                </mxCell>
                <mxCell id="77" value="" style="endArrow=none;dashed=1;html=1;dashPattern=1 3;strokeWidth=2;entryX=0.5;entryY=1;entryDx=0;entryDy=0;exitX=0.5;exitY=0;exitDx=0;exitDy=0;" edge="1" parent="1" source="54" target="76">
                    <mxGeometry width="50" height="50" relative="1" as="geometry">
                        <mxPoint x="570" y="460" as="sourcePoint"/>
                        <mxPoint x="620" y="410" as="targetPoint"/>
                    </mxGeometry>
                </mxCell>
                <mxCell id="79" value="" style="endArrow=none;dashed=1;html=1;dashPattern=1 3;strokeWidth=2;exitX=1;exitY=0;exitDx=0;exitDy=0;" edge="1" parent="1" source="25" target="21">
                    <mxGeometry width="50" height="50" relative="1" as="geometry">
                        <mxPoint x="210" y="320" as="sourcePoint"/>
                        <mxPoint x="260" y="270" as="targetPoint"/>
                    </mxGeometry>
                </mxCell>
                <mxCell id="85" value="" style="endArrow=classic;html=1;entryX=1;entryY=0.5;entryDx=0;entryDy=0;exitX=0.5;exitY=0.5;exitDx=0;exitDy=0;exitPerimeter=0;" edge="1" parent="1" source="9" target="29">
                    <mxGeometry width="50" height="50" relative="1" as="geometry">
                        <mxPoint x="790" y="120" as="sourcePoint"/>
                        <mxPoint x="670" y="40" as="targetPoint"/>
                    </mxGeometry>
                </mxCell>
                <mxCell id="87" value="" style="endArrow=classic;html=1;entryX=1;entryY=0.5;entryDx=0;entryDy=0;exitX=0.5;exitY=0.5;exitDx=0;exitDy=0;exitPerimeter=0;" edge="1" parent="1" source="9" target="45">
                    <mxGeometry width="50" height="50" relative="1" as="geometry">
                        <mxPoint x="720" y="230" as="sourcePoint"/>
                        <mxPoint x="770" y="180" as="targetPoint"/>
                    </mxGeometry>
                </mxCell>
                <mxCell id="88" value="" style="endArrow=none;dashed=1;html=1;dashPattern=1 3;strokeWidth=2;entryX=0;entryY=0.5;entryDx=0;entryDy=0;exitX=0.975;exitY=0.359;exitDx=0;exitDy=0;exitPerimeter=0;" edge="1" parent="1" source="21" target="45">
                    <mxGeometry width="50" height="50" relative="1" as="geometry">
                        <mxPoint x="490" y="260" as="sourcePoint"/>
                        <mxPoint x="540" y="210" as="targetPoint"/>
                    </mxGeometry>
                </mxCell>
                <mxCell id="90" value="Actor" style="shape=umlActor;verticalLabelPosition=bottom;verticalAlign=top;html=1;outlineConnect=0;" vertex="1" parent="1">
                    <mxGeometry x="20" y="310" width="30" height="60" as="geometry"/>
                </mxCell>
                <mxCell id="91" value="Client" style="text;html=1;strokeColor=none;fillColor=none;align=center;verticalAlign=middle;whiteSpace=wrap;rounded=0;" vertex="1" parent="1">
                    <mxGeometry x="5" y="280" width="60" height="30" as="geometry"/>
                </mxCell>
                <mxCell id="93" value="" style="endArrow=classic;html=1;entryX=0;entryY=0.5;entryDx=0;entryDy=0;exitX=0.5;exitY=0.5;exitDx=0;exitDy=0;exitPerimeter=0;" edge="1" parent="1" source="90" target="92">
                    <mxGeometry width="50" height="50" relative="1" as="geometry">
                        <mxPoint x="70" y="360" as="sourcePoint"/>
                        <mxPoint x="120" y="310" as="targetPoint"/>
                    </mxGeometry>
                </mxCell>
                <mxCell id="95" value="" style="endArrow=none;html=1;entryX=0;entryY=0.5;entryDx=0;entryDy=0;exitX=1;exitY=0.5;exitDx=0;exitDy=0;" edge="1" parent="1" source="92" target="21">
                    <mxGeometry width="50" height="50" relative="1" as="geometry">
                        <mxPoint x="100" y="470" as="sourcePoint"/>
                        <mxPoint x="150" y="420" as="targetPoint"/>
                    </mxGeometry>
                </mxCell>
            </root>
        </mxGraphModel>
    </diagram>
</mxfile>